<?xml version="1.0" encoding="utf-8"?>
<!-- Generator: Adobe Illustrator 26.0.2, SVG Export Plug-In . SVG Version: 6.00 Build 0)  -->
<svg version="1.1" id="Layer_3" xmlns="http://www.w3.org/2000/svg" xmlns:xlink="http://www.w3.org/1999/xlink" x="0px" y="0px"
	 viewBox="0 0 64 64" style="enable-background:new 0 0 64 64;" xml:space="preserve">
<g>
	<path d="M54,1H10C9.447,1,9,1.448,9,2v56c0,0.552,0.447,1,1,1h2v3c0,0.552,0.447,1,1,1h6c0.553,0,1-0.448,1-1v-3h24v3
		c0,0.552,0.447,1,1,1h6c0.553,0,1-0.448,1-1v-3h2c0.553,0,1-0.448,1-1V2C55,1.448,54.553,1,54,1z M39,3h2v46c0,1.103-0.897,2-2,2V3
		z M11,3h26v54H11V3z M18,61h-4v-2h4V61z M50,61h-4v-2h4V61z M53,57H39v-4c2.206,0,4-1.794,4-4V3h10V57z"/>
	<path d="M34,5H14c-0.553,0-1,0.448-1,1v24c0,0.552,0.447,1,1,1h20c0.553,0,1-0.448,1-1V6C35,5.448,34.553,5,34,5z M33,7v8h-2v-5
		c0-0.552-0.447-1-1-1h-4c-0.553,0-1,0.448-1,1v5h-2v-5c0-0.552-0.447-1-1-1h-4c-0.553,0-1,0.448-1,1v5h-2V7H33z M29,25h-2v-4h2V25z
		 M30,19h-4c-0.553,0-1,0.448-1,1v5h-2v-5c0-0.552-0.447-1-1-1h-4c-0.553,0-1,0.448-1,1v5h-2v-8h18v8h-2v-5
		C31,19.448,30.553,19,30,19z M21,25h-2v-4h2V25z M21,15h-2v-4h2V15z M29,15h-2v-4h2V15z M15,29v-2h18v2H15z"/>
	<path d="M20,49h-6c-0.553,0-1,0.448-1,1v4c0,0.552,0.447,1,1,1h6c0.553,0,1-0.448,1-1v-4C21,49.448,20.553,49,20,49z M19,53h-4v-2
		h4V53z"/>
</g>
</svg>
